<svg width="23" height="23" viewBox="0 0 23 23" fill="none" xmlns="http://www.w3.org/2000/svg">
<path d="M21.25 0H1.25C0.918479 0 0.600537 0.131696 0.366116 0.366116C0.131696 0.600537 0 0.918479 0 1.25V21.25C0 21.5815 0.131696 21.8995 0.366116 22.1339C0.600537 22.3683 0.918479 22.5 1.25 22.5H12.0187V13.8H9.09625V10.3937H12.0187V7.89375C12.0187 4.9875 13.7937 3.40375 16.3937 3.40375C17.2675 3.40125 18.1425 3.44625 19.0125 3.5375V6.5625H17.2188C15.8087 6.5625 15.5338 7.235 15.5338 8.21875V10.3875H18.905L18.4675 13.7937H15.5325V22.5H21.25C21.5815 22.5 21.8995 22.3683 22.1339 22.1339C22.3683 21.8995 22.5 21.5815 22.5 21.25V1.25C22.5 0.918479 22.3683 0.600537 22.1339 0.366116C21.8995 0.131696 21.5815 0 21.25 0Z" fill="#E7332B"/>
</svg>
