<svg width="301" height="27" viewBox="0 0 301 27" fill="none" xmlns="http://www.w3.org/2000/svg">
<path d="M22.156 0.439999V26H17.224V15.092H5.632V26H0.664V0.439999H5.632V10.772H17.224V0.439999H22.156ZM32.4562 9.584V26H27.4882V0.439999H31.4482L44.6602 17.288V0.475998H49.6282V26H45.4882L32.4562 9.584ZM65.5653 26.18C63.8853 26.18 62.3133 25.844 60.8493 25.172C59.3853 24.5 58.0893 23.576 56.9613 22.4C55.8573 21.2 54.9933 19.808 54.3693 18.224C53.7453 16.64 53.4333 14.924 53.4333 13.076C53.4333 11.324 53.7453 9.68 54.3693 8.144C54.9933 6.584 55.8693 5.216 56.9973 4.04C58.1253 2.864 59.4453 1.94 60.9573 1.268C62.4693 0.595999 64.1133 0.259999 65.8893 0.259999C68.2653 0.259999 70.3173 0.775999 72.0453 1.808C73.7733 2.816 75.0693 4.16 75.9333 5.84L72.2253 8.576C71.5773 7.328 70.6653 6.368 69.4893 5.696C68.3373 5 67.0773 4.652 65.7093 4.652C64.2693 4.652 62.9973 5.048 61.8933 5.84C60.8133 6.632 59.9613 7.676 59.3373 8.972C58.7373 10.268 58.4373 11.684 58.4373 13.22C58.4373 14.828 58.7613 16.28 59.4093 17.576C60.0573 18.872 60.9453 19.904 62.0733 20.672C63.2253 21.416 64.5333 21.788 65.9973 21.788C68.4693 21.788 70.7013 20.624 72.6933 18.296V16.496H67.5453V12.86H76.7973V26H72.6933V23.12C70.6293 25.16 68.2533 26.18 65.5653 26.18ZM89.6796 26V0.439999H94.6476V26H89.6796ZM104.948 9.584V26H99.9804V0.439999H103.94L117.152 17.288V0.475998H122.12V26H117.98L104.948 9.584ZM146.553 4.796H138.381V26H133.449V4.796H125.277V0.439999H146.553V4.796ZM167.475 21.644V26H149.727V0.439999H167.151V4.796H154.695V10.952H165.459V14.984H154.695V21.644H167.475ZM171.348 26V0.439999H182.652C183.828 0.439999 184.908 0.679998 185.892 1.16C186.9 1.64 187.764 2.288 188.484 3.104C189.228 3.92 189.792 4.832 190.176 5.84C190.584 6.848 190.788 7.88 190.788 8.936C190.788 10.568 190.368 12.068 189.528 13.436C188.712 14.804 187.596 15.788 186.18 16.388L192.012 26H186.54L181.284 17.432H176.316V26H171.348ZM176.316 13.076H182.544C183.48 13.076 184.248 12.68 184.848 11.888C185.472 11.072 185.784 10.088 185.784 8.936C185.784 8.144 185.616 7.436 185.28 6.812C184.944 6.188 184.512 5.696 183.984 5.336C183.48 4.976 182.928 4.796 182.328 4.796H176.316V13.076ZM200.257 9.584V26H195.289V0.439999H199.249L212.461 17.288V0.475998H217.429V26H213.289L200.257 9.584ZM237.974 7.136C237.758 6.896 237.302 6.584 236.606 6.2C235.91 5.792 235.07 5.432 234.086 5.12C233.126 4.784 232.13 4.616 231.098 4.616C228.386 4.616 227.03 5.576 227.03 7.496C227.03 8.192 227.246 8.744 227.678 9.152C228.11 9.56 228.758 9.908 229.622 10.196C230.486 10.484 231.566 10.796 232.862 11.132C234.542 11.564 235.994 12.068 237.218 12.644C238.466 13.22 239.414 13.988 240.062 14.948C240.734 15.884 241.07 17.132 241.07 18.692C241.07 20.516 240.626 21.992 239.738 23.12C238.874 24.224 237.722 25.028 236.282 25.532C234.842 26.036 233.282 26.288 231.602 26.288C229.682 26.288 227.774 26 225.878 25.424C224.006 24.824 222.338 24.008 220.874 22.976L223.07 18.692C223.286 18.908 223.67 19.196 224.222 19.556C224.774 19.892 225.446 20.24 226.238 20.6C227.03 20.936 227.894 21.224 228.83 21.464C229.766 21.704 230.714 21.824 231.674 21.824C234.41 21.824 235.778 20.948 235.778 19.196C235.778 18.452 235.502 17.852 234.95 17.396C234.398 16.94 233.618 16.556 232.61 16.244C231.626 15.932 230.474 15.584 229.154 15.2C227.522 14.744 226.166 14.24 225.086 13.688C224.03 13.112 223.238 12.404 222.71 11.564C222.182 10.7 221.918 9.608 221.918 8.288C221.918 6.536 222.326 5.072 223.142 3.896C223.982 2.696 225.11 1.796 226.526 1.196C227.942 0.571999 229.514 0.259999 231.242 0.259999C233.018 0.259999 234.674 0.547999 236.21 1.124C237.746 1.7 239.066 2.36 240.17 3.104L237.974 7.136ZM266.316 0.439999V26H261.384V15.092H249.792V26H244.824V0.439999H249.792V10.772H261.384V0.439999H266.316ZM271.648 26V0.439999H276.616V26H271.648ZM281.949 26V0.439999H292.785C293.961 0.439999 295.041 0.679998 296.025 1.16C297.033 1.64 297.897 2.288 298.617 3.104C299.337 3.92 299.901 4.832 300.309 5.84C300.717 6.848 300.921 7.88 300.921 8.936C300.921 10.376 300.585 11.744 299.913 13.04C299.241 14.336 298.305 15.392 297.105 16.208C295.929 17.024 294.549 17.432 292.965 17.432H286.917V26H281.949ZM286.917 13.076H292.677C293.589 13.076 294.345 12.704 294.945 11.96C295.569 11.192 295.881 10.184 295.881 8.936C295.881 7.616 295.533 6.596 294.837 5.876C294.141 5.156 293.349 4.796 292.461 4.796H286.917V13.076Z" fill="#1DAEEC"/>
</svg>
