<svg width="30" height="27" viewBox="0 0 30 27" fill="none" xmlns="http://www.w3.org/2000/svg">
<path d="M26.7857 0H3.21429C1.43973 0 0 1.25977 0 2.8125V23.4375C0 24.9902 1.43973 26.25 3.21429 26.25H26.7857C28.5603 26.25 30 24.9902 30 23.4375V2.8125C30 1.25977 28.5603 0 26.7857 0ZM23.5112 9.30469C23.5246 9.46875 23.5246 9.63867 23.5246 9.80273C23.5246 14.8828 19.1049 20.7363 11.029 20.7363C8.53795 20.7363 6.22768 20.1035 4.28571 19.0137C4.64062 19.0488 4.98214 19.0605 5.34375 19.0605C7.39955 19.0605 9.28795 18.4512 10.7946 17.4199C8.86607 17.3848 7.24554 16.2773 6.68973 14.7539C7.36607 14.8418 7.97545 14.8418 8.67188 14.6836C6.66295 14.3262 5.15625 12.7793 5.15625 10.9102V10.8633C5.73884 11.1504 6.42187 11.3262 7.13839 11.3496C6.536 10.999 6.04218 10.5234 5.70098 9.96513C5.35979 9.4069 5.18185 8.78344 5.18304 8.15039C5.18304 7.43555 5.39732 6.7793 5.77902 6.21094C7.94196 8.54297 11.1897 10.0664 14.8326 10.2305C14.2098 7.62305 16.4397 5.50781 19.1183 5.50781C20.3839 5.50781 21.5223 5.9707 22.3259 6.7207C23.317 6.55664 24.2679 6.23437 25.1116 5.79492C24.7835 6.68555 24.0938 7.43555 23.183 7.91016C24.067 7.82812 24.9241 7.61133 25.7143 7.3125C25.1183 8.08008 24.3683 8.75977 23.5112 9.30469Z" fill="#E7332B"/>
</svg>
