<svg width="34" height="28" viewBox="0 0 34 28" fill="none" xmlns="http://www.w3.org/2000/svg">
<path d="M12.0382 20.344C12.0382 21.688 11.9635 22.7707 11.8142 23.592C11.6648 24.3387 11.1795 25.0853 10.3582 25.832C9.53684 26.504 8.34217 26.84 6.77417 26.84C4.45951 26.84 2.96617 26.28 2.29417 25.16C1.62217 23.9653 1.28617 22.36 1.28617 20.344C1.28617 18.2533 1.65951 16.1627 2.40617 14.072C3.22751 11.9813 4.16084 10.2267 5.20617 8.808C6.32617 7.31466 7.40884 5.97066 8.45417 4.776C9.57417 3.58133 10.5448 2.68533 11.3662 2.088L12.4862 1.30399L15.1742 4.328C13.6808 5.59733 12.5608 6.86666 11.8142 8.13599C11.1422 9.33066 10.8062 11.0107 10.8062 13.176C10.8062 13.848 10.9928 14.968 11.3662 16.536C11.8142 18.104 12.0382 19.3733 12.0382 20.344ZM29.6222 20.344C29.6222 21.688 29.5475 22.7707 29.3982 23.592C29.2488 24.3387 28.7635 25.0853 27.9422 25.832C27.1208 26.504 25.9262 26.84 24.3582 26.84C22.0435 26.84 20.5502 26.28 19.8782 25.16C19.2062 23.9653 18.8702 22.36 18.8702 20.344C18.8702 18.2533 19.2435 16.1627 19.9902 14.072C20.8115 11.9813 21.7448 10.2267 22.7902 8.808C23.9102 7.31466 24.9928 5.97066 26.0382 4.776C27.1582 3.58133 28.0915 2.68533 28.8382 2.088L30.0702 1.30399L32.6462 4.328C31.6755 5.224 30.9288 5.97066 30.4062 6.56799C29.9582 7.16533 29.5102 8.06133 29.0622 9.256C28.6142 10.376 28.3902 11.6827 28.3902 13.176C28.3902 13.848 28.5768 14.968 28.9502 16.536C29.3982 18.104 29.6222 19.3733 29.6222 20.344Z" fill="#161616" fill-opacity="0.12"/>
<path d="M11.8142 23.592L12.1929 23.6677L12.1941 23.6611L11.8142 23.592ZM10.3582 25.832L10.6027 26.1309L10.6105 26.1245L10.6179 26.1177L10.3582 25.832ZM2.29417 25.16L1.95746 25.3494L1.96303 25.3587L2.29417 25.16ZM2.40617 14.072L2.04656 13.9307L2.04249 13.9421L2.40617 14.072ZM5.20617 8.808L4.89722 8.57628L4.89528 8.57892L5.20617 8.808ZM8.45417 4.776L8.17228 4.51171L8.16354 4.52169L8.45417 4.776ZM11.3662 2.088L11.1447 1.77158L11.139 1.77568L11.3662 2.088ZM12.4862 1.30399L12.7748 1.04743L12.5464 0.790455L12.2647 0.987625L12.4862 1.30399ZM15.1742 4.328L15.4243 4.62224L15.7251 4.36653L15.4628 4.07143L15.1742 4.328ZM11.8142 8.13599L11.4812 7.94016L11.4776 7.94666L11.8142 8.13599ZM11.3662 16.536L10.9905 16.6254L10.9925 16.6338L10.9949 16.6421L11.3662 16.536ZM29.3982 23.592L29.7769 23.6677L29.7781 23.6611L29.3982 23.592ZM27.9422 25.832L28.1867 26.1309L28.1945 26.1245L28.2019 26.1177L27.9422 25.832ZM19.8782 25.16L19.5415 25.3494L19.547 25.3587L19.8782 25.16ZM19.9902 14.072L19.6306 13.9307L19.6265 13.9421L19.9902 14.072ZM22.7902 8.808L22.4812 8.57628L22.4793 8.57892L22.7902 8.808ZM26.0382 4.776L25.7563 4.51172L25.7475 4.52169L26.0382 4.776ZM28.8382 2.088L28.6308 1.76219L28.6132 1.7734L28.5969 1.78644L28.8382 2.088ZM30.0702 1.30399L30.3642 1.05357L30.1463 0.797817L29.8628 0.978191L30.0702 1.30399ZM32.6462 4.328L32.9081 4.61176L33.1808 4.36006L32.9402 4.07757L32.6462 4.328ZM30.4062 6.56799L30.1155 6.31369L30.106 6.32465L30.0972 6.33629L30.4062 6.56799ZM29.0622 9.256L29.4208 9.39946L29.4238 9.39159L29.0622 9.256ZM28.9502 16.536L28.5745 16.6254L28.5765 16.6338L28.5789 16.6421L28.9502 16.536ZM11.652 20.344C11.652 21.677 11.5777 22.7338 11.4342 23.5229L12.1941 23.6611C12.3493 22.8075 12.4244 21.699 12.4244 20.344H11.652ZM11.4355 23.5163C11.3082 24.1525 10.8855 24.8307 10.0984 25.5462L10.6179 26.1177C11.4735 25.3399 12.0214 24.5248 12.1929 23.6677L11.4355 23.5163ZM10.1136 25.5331C9.38754 26.1272 8.29417 26.4538 6.77417 26.4538V27.2262C8.39018 27.2262 9.68614 26.8808 10.6027 26.1309L10.1136 25.5331ZM6.77417 26.4538C4.49022 26.4538 3.18667 25.8969 2.62532 24.9613L1.96303 25.3587C2.74568 26.6631 4.42879 27.2262 6.77417 27.2262V26.4538ZM2.63076 24.9707C2.00304 23.8547 1.67235 22.3227 1.67235 20.344H0.899994C0.899994 22.3973 1.2413 24.0759 1.95759 25.3493L2.63076 24.9707ZM1.67235 20.344C1.67235 18.3003 2.03715 16.2535 2.76985 14.2019L2.04249 13.9421C1.28186 16.0719 0.899994 18.2064 0.899994 20.344H1.67235ZM2.76561 14.2132C3.57784 12.1457 4.49625 10.4225 5.51707 9.03708L4.89528 8.57892C3.82543 10.0309 2.87717 11.817 2.04674 13.9308L2.76561 14.2132ZM5.51512 9.0397C6.63028 7.55282 7.70685 6.21653 8.7448 5.0303L8.16354 4.52169C7.11083 5.72479 6.02207 7.0765 4.89723 8.57629L5.51512 9.0397ZM8.7359 5.04012C9.84804 3.85385 10.7999 2.97738 11.5933 2.40031L11.139 1.77568C10.2898 2.39328 9.30031 3.30882 8.17244 4.51187L8.7359 5.04012ZM11.5876 2.40437L12.7076 1.62037L12.2647 0.987625L11.1447 1.77163L11.5876 2.40437ZM12.1975 1.56056L14.8855 4.58456L15.4628 4.07143L12.7748 1.04743L12.1975 1.56056ZM14.9241 4.03375C13.4081 5.32236 12.2558 6.62363 11.4813 7.94019L12.147 8.33179C12.8659 7.10969 13.9536 5.8723 15.4243 4.62224L14.9241 4.03375ZM11.4776 7.94666C10.7595 9.22334 10.42 10.9791 10.42 13.176H11.1924C11.1924 11.0422 11.5249 9.43798 12.1508 8.32532L11.4776 7.94666ZM10.42 13.176C10.42 13.898 10.6172 15.0575 10.9905 16.6254L11.7418 16.4466C11.3685 14.8785 11.1924 13.798 11.1924 13.176H10.42ZM10.9949 16.6421C11.4387 18.1956 11.652 19.4253 11.652 20.344H12.4244C12.4244 19.3213 12.1896 18.0124 11.7375 16.4299L10.9949 16.6421ZM29.236 20.344C29.236 21.677 29.1617 22.7338 29.0182 23.5229L29.7781 23.6611C29.9333 22.8075 30.0084 21.699 30.0084 20.344H29.236ZM29.0195 23.5163C28.8922 24.1525 28.4695 24.8307 27.6824 25.5462L28.2019 26.1177C29.0575 25.3399 29.6054 24.5248 29.7769 23.6677L29.0195 23.5163ZM27.6976 25.5331C26.9715 26.1272 25.8782 26.4538 24.3582 26.4538V27.2262C25.9742 27.2262 27.2701 26.8808 28.1867 26.1309L27.6976 25.5331ZM24.3582 26.4538C22.0742 26.4538 20.7707 25.8969 20.2093 24.9613L19.547 25.3587C20.3297 26.6631 22.0128 27.2262 24.3582 27.2262V26.4538ZM20.2148 24.9707C19.587 23.8547 19.2564 22.3227 19.2564 20.344H18.484C18.484 22.3973 18.8253 24.0759 19.5416 25.3493L20.2148 24.9707ZM19.2564 20.344C19.2564 18.3003 19.6211 16.2535 20.3539 14.2019L19.6265 13.9421C18.8659 16.0719 18.484 18.2064 18.484 20.344H19.2564ZM20.3496 14.2132C21.1618 12.1457 22.0803 10.4225 23.1011 9.03708L22.4793 8.57892C21.4094 10.0309 20.4612 11.817 19.6307 13.9308L20.3496 14.2132ZM23.0991 9.0397C24.2143 7.55282 25.2908 6.21653 26.3288 5.0303L25.7475 4.52169C24.6948 5.72479 23.6061 7.0765 22.4812 8.57629L23.0991 9.0397ZM26.3199 5.04012C27.4348 3.85087 28.3537 2.97012 29.0794 2.38955L28.5969 1.78644C27.8293 2.40054 26.8815 3.31179 25.7564 4.51187L26.3199 5.04012ZM29.0455 2.4138L30.2775 1.6298L29.8628 0.978191L28.6308 1.76219L29.0455 2.4138ZM29.7762 1.55442L32.3522 4.57842L32.9402 4.07757L30.3642 1.05357L29.7762 1.55442ZM32.3842 4.04423C31.4092 4.94431 30.6512 5.70152 30.1155 6.31369L30.6968 6.8223C31.2065 6.2398 31.9419 5.50368 32.9081 4.61176L32.3842 4.04423ZM30.0972 6.33629C29.617 6.97655 29.1537 7.912 28.7006 9.1204L29.4238 9.39159C29.8666 8.21066 30.2993 7.35411 30.7151 6.7997L30.0972 6.33629ZM28.7036 9.11258C28.2336 10.2876 28.004 11.6448 28.004 13.176H28.7764C28.7764 11.7205 28.9948 10.4644 29.4207 9.39942L28.7036 9.11258ZM28.004 13.176C28.004 13.898 28.2012 15.0575 28.5745 16.6254L29.3259 16.4466C28.9525 14.8785 28.7764 13.798 28.7764 13.176H28.004ZM28.5789 16.6421C29.0227 18.1956 29.236 19.4253 29.236 20.344H30.0084C30.0084 19.3213 29.7736 18.0124 29.3215 16.4299L28.5789 16.6421Z" fill="#E7332B" fill-opacity="0.48"/>
</svg>
